<svg width="110" height="89" xmlns="http://www.w3.org/2000/svg">
  <path
    d="M43.7 4.1c.1.6-.2 1.1-1.2 1.6-1.3-.7-4.1-1.1-6.4-.9-2.5.2-4.6 1-4.3 2.7.4 1.7 2.8 2.7 7.1 2.3 10.5-.9 10.4-8 25.8-9.4C76.7-.7 83.4 3 84.3 7.5c.7 3.5-2.2 6.9-10.9 7.6-7.7.7-12.2-1.4-12.6-3.5-.2-1.1.4-2.7 4.1-3.1.4 1.7 2.5 3.5 7.5 3 3.6-.3 6.6-1.6 6.2-3.6-.4-2.1-4.2-3.3-10.2-2.8-12.2 1.1-15.2 7.8-25.6 8.7-7.4.7-13.4-2-14.2-6-.3-1.5-.3-5 7.5-5.7 4-.3 7.2.4 7.6 2zm-39 41.8C1.3 50.2-.2 55.2.1 60.1c.3 4.9 2.7 8.9 6.5 12 4 3.1 8.3 4 13.2 3.1 1.9-.3 4-1.3 5.9-1.9-4 0-7.4-1.3-10.8-4-3.7-2.7-6.2-6.5-6.8-11.1-.9-4.3 0-8.3 2.4-11.8 2.7-3.4 6.2-5.3 10.8-5.9 4.6-.3 8.6.9 12.6 3.7-.9-1.3-2.2-2.2-3.4-3.4-4-2.7-8.3-4-13.6-2.7-4.8 1-8.8 3.5-12.2 7.8zm53.6-23.1c-12.9 0-24.4-1.3-32.7-3.1C16.7 17.5 12 15.1 12 12c0-1.3.6-2.4 2.4-3.7-5.6 2.2-8.6 4-8.6 6.8.3 3.1 5.3 6.2 15.5 8.6 9.6 2.4 21.9 3.7 36.7 3.7 15.1 0 27.1-1.3 36.7-3.7 10.2-2.4 15.1-5.6 15.1-8.6 0-2.2-2.2-4.3-6.2-5.9.9.6 1.6 1.6 1.6 2.7 0 3.1-4.6 5.6-13.9 7.7-8.6 1.9-19.6 3.2-33 3.2zm36.8 8.6c-9.6 2.2-21.9 3.7-36.7 3.7-15.1 0-27.4-1.6-37-3.7-8.6-2.2-13.2-4.6-14.8-7.1 1.6 10.8 5.3 21 10.2 30 3.7 5.6 7.4 10.5 11.1 15.8 1.6 3.1 2.7 6.2 3.4 9.3 2.4 3.4 5.9 5.6 10.2 6.8 5.3 1.9 10.8 2.7 16.4 2.4h.6c5.6.3 11.5-.6 16.9-2.4 4-1.3 7.4-3.4 9.9-6.8h.3c.6-3.1 1.6-6.2 3.1-9.3 3.7-5.3 7.4-10.2 11.1-15.8 4.9-8.9 8.3-19.1 10.2-30-2 2.8-6.6 5.2-14.9 7.1z"
    fill="#9e7373"
    fillRule="nonzero"
  />
</svg>